<svg preserveAspectRatio="none" overflow="visible" style="display: block;" width="229" height="48.202" viewBox="0 0 229 48.202" fill="none" xmlns="http://www.w3.org/2000/svg">
<g id="Sandplay" filter="url(#filter0_d_0_10)">
<path id="Vector" d="M203.261 18.8654C202.744 14.4558 202.531 10.8672 202.622 8.09983C202.561 6.79214 203.093 5.54529 204.219 4.35925C205.283 3.23404 206.393 2.61061 207.549 2.48896C208.826 2.39773 209.647 3.11239 210.012 4.63295C210.255 5.48446 210.559 6.47283 210.924 7.59804C211.289 8.72326 211.639 9.90929 211.973 11.1562C212.308 10.7 212.84 9.89409 213.57 8.73846C214.3 7.58283 214.984 6.54886 215.623 5.63652C217.174 3.4165 218.542 1.86553 219.728 0.983608C220.884 0.527441 221.872 0.405796 222.693 0.618674C223.545 0.80114 224.153 1.10525 224.518 1.53101C224.913 1.95676 225.065 2.58019 224.974 3.4013C224.913 5.3172 223.454 8.32791 220.595 12.4334C219.926 13.3762 219.242 14.471 218.542 15.7178C217.873 16.9647 217.083 18.3636 216.17 19.9146C215.288 21.4351 214.437 22.9557 213.616 24.4763C211.73 27.9127 210.255 31.1819 209.191 34.2839C209.221 34.223 209.343 34.2991 209.556 34.5119C209.769 34.6944 209.966 34.9681 210.149 35.3331C210.635 36.2454 210.59 37.0057 210.012 37.6139C208.552 39.1344 206.743 39.986 204.584 40.1684C202.607 40.3205 200.904 39.9556 199.474 39.0736C198.045 38.2525 197.574 37.2337 198.06 36.0173H197.923C198.593 34.2839 199.353 32.6569 200.204 31.1363C201.056 29.5853 201.938 27.9887 202.85 26.3465L204.903 22.6972C204.386 22.8188 203.96 22.4539 203.626 21.6024C203.382 20.9029 203.261 19.9906 203.261 18.8654Z" fill="#635745"/>
<path id="Vector_2" d="M195.708 5.22597C196.742 5.77337 197.396 6.57927 197.67 7.64366C197.062 11.0497 196.514 14.4406 196.028 17.8162C195.541 21.1614 195.07 23.9745 194.614 26.2553C194.157 28.5057 193.838 30.1936 193.656 31.3188C193.504 32.444 193.321 33.5692 193.108 34.6944L192.835 35.6524C192.774 35.9869 192.713 36.291 192.652 36.5647C192.591 36.8688 192.53 37.1881 192.47 37.5227C191.618 38.4958 190.462 38.9824 189.003 38.9824C187.452 38.9824 186.22 38.587 185.308 37.7964C184.76 37.3706 184.669 36.4735 185.034 35.105C185.186 34.5576 185.277 33.8581 185.308 33.0066C185.369 32.1247 185.429 31.3948 185.49 30.817V30.7258C184.578 31.0603 183.757 31.5012 183.027 32.0486C182.297 32.5656 181.841 32.9002 181.658 33.0522C181.476 33.1739 181.233 33.2803 180.929 33.3715C180.624 33.4323 180.351 33.478 180.107 33.5084C179.53 33.5388 179.134 33.63 178.921 33.7821C177.158 36.9448 175.576 38.7087 174.177 39.0736C173.295 39.3473 172.413 39.4082 171.531 39.2561C170.65 39.1344 169.95 38.6175 169.433 37.7051C168.46 36.7928 168.703 34.2991 170.163 30.224C170.954 28.0648 172.079 25.4798 173.539 22.4691C175.029 19.428 176.458 16.7822 177.827 14.5318C180.776 9.69642 184.015 5.62132 187.543 2.3065C188.121 2.06321 188.744 1.78951 189.413 1.4854C190.082 1.15087 190.736 0.968407 191.375 0.937996C192.044 0.907583 192.728 0.983611 193.428 1.16608C194.127 1.34855 194.72 1.62225 195.207 1.98718C196.332 2.83869 196.499 3.91829 195.708 5.22597ZM185.946 17.2232C185.308 19.0479 184.669 20.7357 184.03 22.2867C183.392 23.8072 182.844 25.1453 182.388 26.3009L185.992 26.1641C186.235 24.2178 186.509 22.2867 186.813 20.3707C187.117 18.4548 187.406 16.5389 187.68 14.623L185.946 17.2232ZM184.715 26.3465C185.141 26.3465 185.566 26.3161 185.992 26.2553V26.2097C185.597 26.2401 185.232 26.2705 184.897 26.3009C184.563 26.3313 184.502 26.3465 184.715 26.3465Z" fill="#635745"/>
<path id="Vector_3" d="M163.462 38.3438C162.823 38.5262 162.215 38.6175 161.637 38.6175C161.059 38.6479 160.466 38.6783 159.858 38.7087C159.28 38.7391 158.475 38.7543 157.441 38.7543C156.407 38.7543 154.856 38.7239 152.788 38.6631C152.301 38.6935 151.814 38.7087 151.328 38.7087C150.841 38.7087 150.385 38.6175 149.959 38.435C149.017 38.0396 148.378 37.1273 148.043 35.698C147.891 35.0289 147.724 34.5576 147.542 34.2839C147.329 34.0102 147.162 33.7517 147.04 33.5084C146.736 33.0218 146.766 32.2159 147.131 31.0907C147.466 29.9655 147.907 28.5818 148.454 26.9396C149.001 25.2669 149.625 23.5031 150.324 21.648C151.967 17.2384 153.441 13.7411 154.749 11.1562C155.266 10.0005 155.707 8.99696 156.072 8.14545C156.467 7.29393 156.817 6.56406 157.121 5.95584C157.425 5.3172 157.577 4.98268 157.577 4.95227C157.882 3.79664 159.052 2.82349 161.09 2.0328C163.067 1.21169 164.861 0.998816 166.473 1.39416C168.267 1.85033 169.058 3.03636 168.845 4.95227C168.419 6.83776 167.78 8.72326 166.929 10.6088C166.108 12.4942 165.165 14.471 164.101 16.5389C163.036 18.6069 161.881 20.7965 160.634 23.1078C159.387 25.419 158.155 27.9279 156.939 30.6345C156.908 30.7562 156.969 30.8626 157.121 30.9538C157.517 30.9234 158.064 30.8018 158.763 30.5889C159.493 30.376 160.238 30.1936 160.999 30.0415C161.789 29.859 162.565 29.7678 163.325 29.7678C164.085 29.7678 164.724 29.9655 165.241 30.3608C165.211 30.9082 165.347 31.3492 165.652 31.6837C165.956 31.9878 166.26 32.2919 166.564 32.596C167.324 33.3867 167.385 34.4359 166.746 35.7436C166.138 37.0209 165.043 37.8876 163.462 38.3438Z" fill="#635745"/>
<path id="Vector_4" d="M141.815 26.3922C140.598 27.3045 139.321 27.9735 137.983 28.3993C136.675 28.7946 135.368 28.9011 134.06 28.7186C132.752 28.5362 131.627 27.9735 130.684 27.0308C129.833 29.7374 129.255 32.4136 128.951 35.0594C128.829 35.5459 128.616 35.9869 128.312 36.3822C127.765 37.994 126.564 39.0736 124.708 39.621C122.884 40.138 121.181 40.0468 119.599 39.3473C118.87 39.0128 118.261 38.5262 117.775 37.8876C117.288 37.249 117.045 36.4735 117.045 35.5611C119.143 28.2929 121.166 22.3323 123.112 17.6794C123.538 16.7062 123.872 15.9155 124.115 15.3073C124.389 14.6991 124.632 14.1821 124.845 13.7563C125.058 13.3306 125.241 12.9656 125.393 12.6615C125.575 12.327 125.788 11.9621 126.031 11.5667C126.579 10.6544 127.202 9.58998 127.902 8.37353C128.632 7.12667 129.24 6.19913 129.726 5.59091C130.243 4.98268 130.776 4.46569 131.323 4.03994C131.901 3.58377 132.524 3.15801 133.193 2.76267C133.893 2.36732 134.759 1.85033 135.793 1.2117C136.827 0.57306 137.922 0.19292 139.078 0.0712773C140.264 -0.0807803 141.389 0.0104534 142.453 0.344978C144.704 1.04444 146.361 2.61061 147.426 5.04351C148.338 7.29393 148.49 10.3198 147.882 14.1212C146.939 19.9298 144.917 24.0201 141.815 26.3922ZM132.281 22.3323C134.775 21.7849 136.508 20.1579 137.481 17.4513C138.302 15.1704 138.47 12.5855 137.983 9.69642C137.284 10.8825 136.645 12.1141 136.067 13.3914C135.52 14.6686 135.018 15.8091 134.562 16.8126C133.558 19.0631 132.798 20.9029 132.281 22.3323Z" fill="#635745"/>
<path id="Vector_5" d="M118.146 17.6337C118.025 18.9414 117.781 20.2795 117.416 21.648C117.082 23.0165 116.58 24.3546 115.911 25.6623C115.272 26.97 114.497 28.232 113.584 29.4485C112.703 30.6649 111.714 31.7901 110.619 32.8241C109.525 33.8581 108.354 34.7248 107.107 35.4243C104.431 37.0057 101.846 37.5683 99.352 37.1121C98.8046 38.2981 97.9835 39.0432 96.8887 39.3473C95.8243 39.6819 94.76 39.6819 93.6956 39.3473C92.6616 39.0432 91.7493 38.4502 90.9586 37.5683C90.1679 36.6863 89.7725 35.4851 89.7725 33.9645C89.7725 32.4136 89.879 30.8322 90.0918 29.2204C90.3047 27.6086 90.5936 26.0576 90.9586 24.5675C91.5364 22.1042 92.251 19.7929 93.1025 17.6337C95.1097 12.7375 96.2501 9.30107 96.5238 7.32434C96.9191 4.67857 97.649 3.03637 98.7134 2.39773C100.477 1.36375 102.15 0.922786 103.731 1.07484C105.313 1.2269 106.742 1.60704 108.019 2.21526C110.118 3.21883 112.383 4.90665 114.816 7.27873C117.492 9.86368 118.602 13.3153 118.146 17.6337ZM100.219 31.3188C101.77 30.5281 103.017 29.7222 103.959 28.9011C104.932 28.0496 105.845 27.2741 106.696 26.5746C108.004 25.2669 108.962 23.716 109.57 21.9217C110.908 17.9683 110.057 14.9728 107.016 12.9352C106.56 12.6007 105.875 12.1445 104.963 11.5667C104.537 12.5399 104.218 13.5586 104.005 14.623C103.822 15.6874 103.564 16.7214 103.229 17.725L101.998 21.7392L100.994 26.0728C100.933 26.6811 100.842 27.2741 100.721 27.8519C100.599 28.3993 100.492 28.9771 100.401 29.5853L100.219 31.3188Z" fill="#635745"/>
<path id="Vector_6" d="M62.5859 18.4548C63.1941 16.4173 63.6807 14.8511 64.0456 13.7563C64.4409 12.6311 64.8211 11.6275 65.186 10.7456C65.551 9.86368 65.9615 9.01216 66.4177 8.19106C66.9042 7.36996 67.4212 6.62488 67.9686 5.95584C68.5465 5.25638 69.1547 4.70898 69.7933 4.31363C70.432 3.91829 71.101 3.72062 71.8005 3.72062C72.4999 3.72062 73.2298 3.99432 73.9901 4.54172C75.2065 7.58284 75.9516 9.62039 76.2253 10.6544C76.5902 12.1749 76.9247 14.3189 77.2289 17.0863C77.5026 16.3869 77.8067 15.657 78.1412 14.8967C78.5061 14.106 78.8559 13.3153 79.1904 12.5247C80.1331 10.5175 80.7261 8.99696 80.9694 7.96298C81.6385 5.83419 83.0222 4.23761 85.1206 3.17321C86.9452 2.26088 88.6483 1.97197 90.2296 2.30649C90.8683 2.42814 91.3092 2.68664 91.5525 3.08198C91.8262 3.47733 91.8262 3.88788 91.5525 4.31363C91.3092 4.73939 91.218 5.14994 91.2788 5.54529C91.3701 5.91022 91.4461 6.35119 91.5069 6.86818C91.5981 8.26709 91.3549 9.51395 90.777 10.6088C90.1992 11.6731 89.6062 13.0112 88.998 14.623C88.3898 16.2044 87.7663 17.8922 87.1277 19.6865C86.5195 21.4808 85.896 23.3054 85.2574 25.1605C84.6188 27.0156 83.9953 28.7034 83.3871 30.224C82.049 33.7213 80.9542 35.6524 80.1027 36.0173C78.9471 36.7168 78.0956 37.1273 77.5482 37.249C76.8487 37.3706 75.8603 37.3706 74.5831 37.249C73.7924 37.1881 73.1081 36.1694 72.5303 34.1926C72.1958 33.1282 71.8917 31.6533 71.618 29.7678C71.1314 26.4834 70.7969 24.6739 70.6144 24.3394C69.398 28.2929 68.5312 30.7866 68.0143 31.8206C67.5277 32.8545 67.1475 33.5388 66.8738 33.8733C66.6306 34.2078 66.3264 34.6488 65.9615 35.1962C65.5662 36.291 64.6234 37.0969 63.1333 37.6139C61.856 38.1005 60.7004 38.1765 59.6664 37.842C58.5412 37.477 58.2067 36.7776 58.6628 35.7436C58.9973 32.0943 60.305 26.3313 62.5859 18.4548Z" fill="#635745"/>
<path id="Vector_7" d="M57.4055 5.22597C58.4394 5.77337 59.0933 6.57927 59.367 7.64366C58.7588 11.0497 58.2114 14.4406 57.7248 17.8162C57.2382 21.1614 56.7668 23.9745 56.3107 26.2553C55.8545 28.5057 55.5352 30.1936 55.3527 31.3188C55.2007 32.444 55.0182 33.5692 54.8053 34.6944L54.5316 35.6524C54.4708 35.9869 54.41 36.291 54.3491 36.5647C54.2883 36.8688 54.2275 37.1881 54.1667 37.5227C53.3152 38.4958 52.1595 38.9824 50.6998 38.9824C49.1488 38.9824 47.9172 38.587 47.0048 37.7964C46.4574 37.3706 46.3662 36.4735 46.7311 35.105C46.8832 34.5576 46.9744 33.8581 47.0048 33.0066C47.0657 32.1247 47.1265 31.3948 47.1873 30.817V30.7258C46.275 31.0603 45.4539 31.5012 44.724 32.0486C43.9941 32.5656 43.538 32.9002 43.3555 33.0522C43.173 33.1739 42.9297 33.2803 42.6256 33.3715C42.3215 33.4323 42.0478 33.478 41.8045 33.5084C41.2267 33.5388 40.8314 33.63 40.6185 33.7821C38.8546 36.9448 37.2733 38.7087 35.8743 39.0736C34.9924 39.3473 34.1105 39.4082 33.2286 39.2561C32.3466 39.1344 31.6472 38.6175 31.1302 37.7051C30.157 36.7928 30.4003 34.2991 31.8601 30.224C32.6508 28.0648 33.776 25.4798 35.2357 22.4691C36.7259 19.428 38.1552 16.7822 39.5237 14.5318C42.4736 9.69642 45.7124 5.62132 49.2401 2.3065C49.8179 2.06321 50.4413 1.78951 51.1103 1.4854C51.7794 1.15087 52.4332 0.968407 53.0719 0.937996C53.7409 0.907583 54.4252 0.983611 55.1246 1.16608C55.8241 1.34855 56.4171 1.62225 56.9037 1.98718C58.0289 2.83869 58.1962 3.91829 57.4055 5.22597ZM47.6435 17.2232C47.0048 19.0479 46.3662 20.7357 45.7276 22.2867C45.0889 23.8072 44.5415 25.1453 44.0854 26.3009L47.6891 26.1641C47.9324 24.2178 48.2061 22.2867 48.5102 20.3707C48.8143 18.4548 49.1032 16.5389 49.3769 14.623L47.6435 17.2232ZM46.4118 26.3465C46.8376 26.3465 47.2633 26.3161 47.6891 26.2553V26.2097C47.2937 26.2401 46.9288 26.2705 46.5943 26.3009C46.2598 26.3313 46.1989 26.3465 46.4118 26.3465Z" fill="#635745"/>
<path id="Vector_8" d="M13.0269 38.7999C11.4759 38.8607 10.0466 38.6631 8.73888 38.2069C7.46161 37.7812 6.41243 37.1881 5.59132 36.4279C4.80063 35.6676 4.29885 34.7857 4.08597 33.7821C3.87309 32.7481 4.05556 31.6989 4.63337 30.6345C5.42406 29.3573 7.00544 28.9771 9.37752 29.4941C11.1718 29.859 12.4034 30.0567 13.0725 30.0871C13.7719 30.1175 14.365 30.0263 14.8515 29.8134C17.0715 29.0835 18.3184 28.2929 18.5921 27.4413C18.7746 26.8027 18.3792 26.0576 17.4061 25.2061C17.0107 24.8412 16.5698 24.4763 16.0832 24.1113C15.5966 23.7464 15.1861 23.3815 14.8515 23.0165C13.331 21.8913 12.1297 20.5988 11.2478 19.1391C10.3963 17.6489 10.0466 16.0371 10.1986 14.3037C10.3507 12.5703 10.6396 11.1409 11.0653 10.0157C11.4911 8.86011 12.0233 7.84133 12.6619 6.95941C13.7871 5.40844 15.2469 4.14637 17.0411 3.17322C19.1091 2.10882 20.7665 1.42457 22.0134 1.12046C24.4767 0.57306 26.9704 0.527443 29.4945 0.98361C30.346 1.13567 31.0759 1.42457 31.6841 1.85033C32.2924 2.27608 32.9006 2.71705 33.5088 3.17322C34.5732 4.23761 34.8317 5.31721 34.2843 6.41201C34.0714 6.89859 33.7369 7.29393 33.2807 7.59804C32.8245 7.90216 32.338 8.06942 31.821 8.09983C31.8818 8.92093 31.7297 9.52915 31.3648 9.9245C30.6654 10.624 29.4489 11.0801 27.7155 11.293C25.2217 11.1105 23.5339 11.2474 22.652 11.7036C21.618 12.251 21.2379 13.437 21.5116 15.2617C21.5724 15.657 21.8157 16.0676 22.2415 16.4933C22.6976 16.9191 23.2146 17.3752 23.7924 17.8618C24.4006 18.3484 25.0241 18.8958 25.6627 19.504C26.3318 20.1122 26.9096 20.8117 27.3961 21.6024C29.0992 24.4002 28.9623 27.6694 26.9856 31.41C25.5259 34.2078 23.0321 36.3062 19.5044 37.7051C17.6798 38.435 15.5206 38.7999 13.0269 38.7999Z" fill="#635745"/>
</g>
<defs>
<filter id="filter0_d_0_10" x="2.35671e-09" y="0" width="229" height="48.202" filterUnits="userSpaceOnUse" color-interpolation-filters="sRGB">
<feFlood flood-opacity="0" result="BackgroundImageFix"/>
<feColorMatrix in="SourceAlpha" type="matrix" values="0 0 0 0 0 0 0 0 0 0 0 0 0 0 0 0 0 0 127 0" result="hardAlpha"/>
<feOffset dy="4"/>
<feGaussianBlur stdDeviation="2"/>
<feComposite in2="hardAlpha" operator="out"/>
<feColorMatrix type="matrix" values="0 0 0 0 0 0 0 0 0 0 0 0 0 0 0 0 0 0 0.25 0"/>
<feBlend mode="normal" in2="BackgroundImageFix" result="effect1_dropShadow_0_10"/>
<feBlend mode="normal" in="SourceGraphic" in2="effect1_dropShadow_0_10" result="shape"/>
</filter>
</defs>
</svg>
